<svg viewBox="0 0 36 36" version="1.1" xmlns="http://www.w3.org/2000/svg" xmlns:xlink="http://www.w3.org/1999/xlink" xml:space="preserve">
    <path
        fill="#03A9F4"
        d="M1.419,10.884c0.931,0.352 1.438,1.382 1.123,2.343c-0.306,0.945 -1.291,1.484 -2.242,1.245c-0.119,0.61 -0.211,1.227 -0.27,1.852c0.97,0.077 1.726,0.89 1.726,1.876c0,0.974 -0.741,1.781 -1.684,1.877c0.069,0.621 0.173,1.233 0.305,1.838c0.928,-0.193 1.868,0.341 2.165,1.258c0.296,0.916 -0.141,1.892 -0.982,2.288c0.255,0.566 0.54,1.115 0.856,1.648c0.812,-0.436 1.852,-0.218 2.415,0.552c0.556,0.771 0.451,1.821 -0.21,2.463c0.416,0.457 0.851,0.896 1.313,1.309c0.638,-0.661 1.692,-0.766 2.459,-0.214c0.768,0.564 0.991,1.603 0.553,2.423c0.53,0.312 1.082,0.597 1.643,0.852c0.404,-0.844 1.38,-1.281 2.289,-0.985c0.923,0.303 1.458,1.248 1.263,2.172c0.604,0.135 1.213,0.234 1.832,0.308c0.101,-0.95 0.906,-1.689 1.879,-1.689c0.984,0 1.799,0.763 1.881,1.726c0.62,-0.059 1.236,-0.15 1.845,-0.268c-0.232,-0.949 0.303,-1.939 1.246,-2.248c0.958,-0.309 1.993,0.192 2.348,1.122c0.576,-0.249 1.138,-0.526 1.679,-0.833c-0.558,-0.838 -0.359,-1.979 0.463,-2.572c0.83,-0.606 2.004,-0.432 2.616,0.396c0.48,-0.414 0.932,-0.857 1.365,-1.322l-0.004,0c-0.839,-0.611 -1.027,-1.795 -0.418,-2.638c0.608,-0.838 1.792,-1.028 2.633,-0.413c0.02,0.009 0.036,0.022 0.055,0.041c0.329,-0.554 0.63,-1.125 0.903,-1.708c-0.031,-0.011 -0.063,-0.02 -0.096,-0.027c-0.985,-0.324 -1.528,-1.39 -1.208,-2.381c0.317,-0.984 1.389,-1.528 2.373,-1.21c0.05,0.021 0.102,0.037 0.147,0.057c0.146,-0.636 0.257,-1.284 0.326,-1.942c-0.059,0.009 -0.117,0.009 -0.178,0.009c-1.035,0 -1.884,-0.844 -1.884,-1.886c0,-1.036 0.849,-1.882 1.884,-1.882c0.073,0 0.146,0 0.221,0.01c-0.064,-0.668 -0.164,-1.33 -0.298,-1.972c-0.066,0.031 -0.141,0.058 -0.219,0.082c-0.984,0.324 -2.056,-0.218 -2.373,-1.21c-0.32,-0.986 0.223,-2.055 1.208,-2.372c0.085,-0.026 0.164,-0.046 0.246,-0.058c-0.27,-0.621 -0.573,-1.221 -0.907,-1.802c-0.064,0.062 -0.127,0.114 -0.201,0.167c-0.841,0.61 -2.024,0.423 -2.633,-0.417c-0.609,-0.84 -0.421,-2.023 0.418,-2.637c0.068,-0.048 0.146,-0.094 0.22,-0.136c-0.449,-0.501 -0.923,-0.982 -1.425,-1.429c-0.042,0.077 -0.087,0.15 -0.142,0.226c-0.607,0.838 -1.79,1.027 -2.631,0.415c-0.84,-0.608 -1.026,-1.792 -0.419,-2.632c0.053,-0.072 0.108,-0.143 0.167,-0.2c-0.578,-0.339 -1.181,-0.644 -1.798,-0.913c-0.015,0.079 -0.037,0.164 -0.064,0.25c-0.32,0.989 -1.389,1.532 -2.375,1.21c-0.986,-0.322 -1.531,-1.389 -1.211,-2.378c0.028,-0.075 0.056,-0.147 0.086,-0.22c-0.646,-0.133 -1.305,-0.234 -1.975,-0.296c0.009,0.072 0.012,0.144 0.012,0.217c0,1.042 -0.846,1.888 -1.884,1.888c-1.036,0 -1.885,-0.845 -1.885,-1.888c0,-0.058 0.004,-0.117 0.006,-0.176c-0.656,0.072 -1.304,0.187 -1.939,0.329c0.021,0.049 0.041,0.095 0.053,0.147c0.319,0.989 -0.222,2.056 -1.208,2.378c-0.989,0.321 -2.055,-0.221 -2.375,-1.21c-0.009,-0.034 -0.021,-0.068 -0.025,-0.101c-0.591,0.274 -1.161,0.575 -1.71,0.904c0.014,0.019 0.027,0.036 0.042,0.059c0.612,0.84 0.425,2.023 -0.417,2.632c-0.84,0.612 -2.022,0.423 -2.635,-0.415c0,-0.006 -0.003,-0.006 -0.003,-0.012c-0.466,0.436 -0.909,0.889 -1.327,1.37c0.829,0.609 1.011,1.783 0.404,2.619c-0.598,0.82 -1.746,1.021 -2.581,0.453c-0.306,0.544 -0.587,1.104 -0.832,1.681M18.124,11.409c0.509,0 0.968,0.206 1.302,0.538c0.332,0.334 0.538,0.792 0.538,1.3c0,0.508 -0.206,0.968 -0.538,1.302c-0.334,0.333 -0.793,0.54 -1.302,0.54c-0.507,0 -0.967,-0.206 -1.3,-0.539c-0.333,-0.333 -0.54,-0.794 -0.54,-1.302c0,-0.507 0.206,-0.967 0.54,-1.3c0.334,-0.334 0.794,-0.539 1.3,-0.539ZM19.221,12.151c-0.28,-0.281 -0.668,-0.455 -1.097,-0.455l0,0.001c-0.428,0 -0.815,0.174 -1.097,0.454c-0.28,0.28 -0.453,0.668 -0.453,1.096c0,0.429 0.173,0.818 0.454,1.098c0.28,0.28 0.669,0.454 1.096,0.454c0.43,0 0.816,-0.174 1.097,-0.453c0.279,-0.281 0.455,-0.669 0.455,-1.099c0,-0.427 -0.176,-0.815 -0.455,-1.096M18.124,20.873c0.509,0 0.967,0.205 1.301,0.538c0.332,0.332 0.539,0.793 0.539,1.299c0,0.509 -0.206,0.969 -0.538,1.303c-0.334,0.333 -0.793,0.539 -1.302,0.539c-0.506,0 -0.966,-0.206 -1.3,-0.54c-0.333,-0.333 -0.539,-0.793 -0.539,-1.302c0,-0.506 0.207,-0.967 0.54,-1.298c0.333,-0.334 0.793,-0.539 1.299,-0.539M19.221,21.615c-0.279,-0.279 -0.667,-0.454 -1.097,-0.454c-0.428,0 -0.815,0.175 -1.097,0.454c-0.28,0.28 -0.453,0.668 -0.453,1.095c0,0.429 0.173,0.818 0.454,1.1c0.28,0.28 0.668,0.452 1.096,0.452c0.43,0 0.817,-0.172 1.096,-0.452c0.28,-0.281 0.454,-0.67 0.454,-1.1c0,-0.427 -0.174,-0.816 -0.453,-1.095M13.394,16.14c0.507,0 0.967,0.206 1.3,0.54c0.333,0.333 0.538,0.792 0.538,1.3l0.001,0c0,0.507 -0.206,0.968 -0.538,1.3c-0.333,0.334 -0.793,0.54 -1.301,0.54c-0.507,0 -0.968,-0.206 -1.301,-0.54c-0.333,-0.332 -0.539,-0.793 -0.539,-1.3l0.001,0c0,-0.509 0.205,-0.968 0.539,-1.301c0.333,-0.333 0.793,-0.539 1.3,-0.539M14.49,16.883c-0.28,-0.281 -0.667,-0.455 -1.096,-0.455c-0.428,0 -0.816,0.174 -1.097,0.455l0.001,0c-0.282,0.281 -0.455,0.668 -0.455,1.097c0,0.429 0.174,0.817 0.454,1.097c0.281,0.281 0.669,0.454 1.097,0.454c0.429,0 0.815,-0.173 1.096,-0.454c0.28,-0.28 0.454,-0.668 0.454,-1.097c0,-0.429 -0.174,-0.817 -0.454,-1.097M22.853,16.14c0.507,0 0.968,0.206 1.301,0.539c0.333,0.334 0.539,0.793 0.539,1.301c0,0.507 -0.206,0.968 -0.538,1.301c-0.333,0.333 -0.795,0.539 -1.302,0.539c-0.508,0 -0.967,-0.206 -1.302,-0.54l0,0.001c-0.332,-0.333 -0.539,-0.794 -0.539,-1.301c0,-0.508 0.208,-0.967 0.54,-1.301c0.334,-0.333 0.793,-0.538 1.301,-0.539ZM23.95,16.883c-0.281,-0.281 -0.669,-0.455 -1.098,-0.455l0,-0.001c-0.428,0 -0.816,0.175 -1.098,0.456c-0.279,0.28 -0.454,0.667 -0.454,1.097c0,0.428 0.175,0.815 0.454,1.097c0.28,0.281 0.67,0.454 1.098,0.454c0.429,0 0.816,-0.173 1.097,-0.454c0.281,-0.28 0.454,-0.668 0.454,-1.097c0,-0.429 -0.172,-0.817 -0.453,-1.097M18.124,15.101c1.589,0 2.88,1.289 2.88,2.879c0,0.794 -0.321,1.514 -0.845,2.037c-0.521,0.521 -1.241,0.843 -2.035,0.843c-0.794,0 -1.516,-0.322 -2.037,-0.843c-0.52,-0.521 -0.843,-1.242 -0.843,-2.037c0,-0.794 0.323,-1.514 0.843,-2.035c0.522,-0.522 1.243,-0.844 2.037,-0.844M20.715,17.979c0,-1.43 -1.162,-2.591 -2.591,-2.591c-0.715,0 -1.364,0.29 -1.832,0.76c-0.469,0.469 -0.759,1.116 -0.759,1.831c0,0.716 0.29,1.364 0.759,1.833c0.468,0.467 1.117,0.759 1.832,0.759c0.716,0 1.364,-0.292 1.834,-0.759c0.468,-0.468 0.757,-1.116 0.757,-1.833M24.063,10.856c-0.379,0.658 -1.169,0.947 -1.868,0.719c0.295,-0.685 0.774,-1.275 1.375,-1.705c0.662,-0.474 1.473,-0.753 2.348,-0.753c1.116,0 2.127,0.454 2.861,1.188c0.73,0.733 1.185,1.745 1.185,2.863c0,1.115 -0.454,2.126 -1.185,2.858c-0.728,0.725 -1.725,1.176 -2.826,1.187c0.285,-0.446 0.78,-0.74 1.342,-0.74c-0.097,-0.567 -0.245,-1.113 -0.438,-1.637c-0.759,0.438 -1.744,0.171 -2.183,-0.588c-0.438,-0.771 -0.181,-1.755 0.579,-2.194c-0.355,-0.438 -0.761,-0.835 -1.19,-1.198M21.981,11.487c-0.033,-0.017 -0.066,-0.035 -0.1,-0.054c-0.13,-0.074 -0.244,-0.163 -0.344,-0.262c0.102,-0.084 0.188,-0.185 0.257,-0.301l0.004,-0.005c0.152,-0.267 0.185,-0.57 0.11,-0.847c-0.063,-0.237 -0.204,-0.455 -0.411,-0.61c0.084,-0.097 0.172,-0.193 0.265,-0.285c0.095,-0.094 0.193,-0.186 0.293,-0.272c0.155,0.205 0.371,0.343 0.607,0.407c0.277,0.074 0.582,0.043 0.853,-0.11l0.001,0l0.001,-0.001l0.002,-0.001c0.267,-0.157 0.446,-0.404 0.521,-0.68c0.064,-0.236 0.051,-0.493 -0.052,-0.732c0.127,-0.046 0.256,-0.087 0.384,-0.122c0.127,-0.035 0.253,-0.063 0.381,-0.086c0.029,0.259 0.148,0.492 0.324,0.667l0.007,0.007c0.202,0.2 0.481,0.324 0.787,0.324c0.312,0 0.592,-0.126 0.794,-0.331c0.177,-0.174 0.294,-0.408 0.323,-0.666c0.135,0.026 0.265,0.057 0.393,0.091c0.126,0.033 0.251,0.071 0.375,0.114c-0.104,0.239 -0.118,0.496 -0.057,0.732c0.076,0.278 0.257,0.527 0.523,0.684l0.001,0.001l0.005,0.003l0.005,0.002c0.267,0.148 0.57,0.179 0.847,0.105c0.236,-0.063 0.453,-0.201 0.606,-0.406c0.098,0.086 0.192,0.176 0.284,0.267c0.094,0.094 0.184,0.191 0.271,0.291c-0.206,0.156 -0.347,0.373 -0.409,0.61c-0.074,0.277 -0.043,0.582 0.113,0.85l0.004,0.005c0.152,0.265 0.398,0.444 0.675,0.519c0.235,0.063 0.495,0.051 0.734,-0.051c0.041,0.125 0.078,0.252 0.112,0.379c0.033,0.127 0.062,0.256 0.088,0.385c-0.254,0.032 -0.484,0.149 -0.657,0.322c-0.204,0.205 -0.331,0.487 -0.331,0.795c0,0.307 0.125,0.586 0.326,0.79c0.172,0.173 0.399,0.292 0.653,0.325c-0.025,0.129 -0.055,0.258 -0.091,0.387c-0.032,0.126 -0.071,0.253 -0.117,0.376c-0.234,-0.097 -0.49,-0.106 -0.725,-0.041c-0.273,0.075 -0.519,0.252 -0.671,0.515c-0.157,0.265 -0.19,0.567 -0.121,0.844c0.06,0.236 0.194,0.455 0.395,0.611c-0.085,0.098 -0.173,0.194 -0.266,0.285c-0.09,0.091 -0.185,0.18 -0.282,0.266c-0.158,-0.2 -0.373,-0.334 -0.608,-0.394c-0.274,-0.069 -0.574,-0.035 -0.841,0.119c-0.263,0.154 -0.441,0.398 -0.517,0.67c-0.065,0.232 -0.055,0.485 0.04,0.719c-0.124,0.043 -0.248,0.081 -0.375,0.115c-0.128,0.034 -0.258,0.064 -0.386,0.089c-0.034,-0.251 -0.153,-0.476 -0.326,-0.646c-0.203,-0.197 -0.482,-0.32 -0.789,-0.32c-0.054,0 -0.109,0.004 -0.164,0.012c0.015,-0.177 0.058,-0.347 0.124,-0.504c0.029,0.001 0.058,0.002 0.087,0.002l0,0.001c1.178,0 2.247,-0.481 3.022,-1.255c0.775,-0.775 1.256,-1.843 1.256,-3.021c0,-1.181 -0.48,-2.251 -1.254,-3.026c-0.775,-0.777 -1.847,-1.256 -3.024,-1.256c-0.925,0 -1.782,0.296 -2.482,0.797c-0.634,0.453 -1.142,1.077 -1.453,1.802M21.387,10.996c-0.329,-0.447 -0.404,-1.045 -0.177,-1.571c-0.003,0.042 0.018,0.084 0.057,0.106c0.215,0.126 0.358,0.326 0.418,0.547c0.059,0.22 0.034,0.461 -0.09,0.674c-0.055,0.095 -0.126,0.177 -0.208,0.244M21.245,9.347c0.016,-0.029 0.03,-0.057 0.046,-0.086l0,-0.01c-0.522,-0.203 -1.07,-0.353 -1.646,-0.449c0,0.01 0.011,0.01 0.011,0.021c0,0.878 -0.728,1.596 -1.604,1.596c-0.889,0 -1.605,-0.718 -1.605,-1.596l0,-0.021c-0.567,0.096 -1.124,0.246 -1.647,0.449l0,0.01c0.02,0.034 0.037,0.067 0.055,0.102l-0.003,-0.004c-0.117,-0.139 -0.239,-0.273 -0.368,-0.402c-0.126,-0.127 -0.26,-0.251 -0.399,-0.366c-0.049,-0.042 -0.123,-0.033 -0.163,0.015c-0.004,0.005 -0.007,0.011 -0.011,0.017l-0.001,-0.001c-0.119,0.211 -0.317,0.352 -0.537,0.412c-0.224,0.059 -0.469,0.036 -0.683,-0.086c-0.215,-0.125 -0.359,-0.322 -0.418,-0.543c-0.056,-0.209 -0.035,-0.439 0.076,-0.647c0.024,-0.021 0.04,-0.053 0.04,-0.088c0,-0.053 -0.036,-0.098 -0.085,-0.112c-0.17,-0.063 -0.341,-0.118 -0.514,-0.164c-0.179,-0.047 -0.357,-0.086 -0.54,-0.118c-0.063,-0.011 -0.123,0.031 -0.134,0.094c-0.001,0.006 -0.001,0.014 -0.001,0.02l-0.001,0l0,0.009c0,0.246 -0.1,0.47 -0.262,0.633c-0.161,0.161 -0.383,0.261 -0.631,0.261c-0.49,0 -0.895,-0.405 -0.895,-0.894l0,-0.009c0,-0.063 -0.052,-0.115 -0.116,-0.115c-0.009,0 -0.018,0.001 -0.027,0.003c-0.178,0.029 -0.355,0.068 -0.528,0.114c-0.176,0.047 -0.35,0.104 -0.519,0.17c-0.059,0.023 -0.089,0.09 -0.066,0.15c0.002,0.005 0.005,0.01 0.007,0.015c0.124,0.216 0.148,0.46 0.089,0.679c-0.059,0.221 -0.203,0.418 -0.417,0.542c-0.213,0.121 -0.456,0.145 -0.678,0.086c-0.22,-0.06 -0.419,-0.201 -0.543,-0.413c-0.032,-0.055 -0.104,-0.073 -0.158,-0.041c-0.005,0.003 -0.01,0.006 -0.016,0.011c-0.082,0.068 -0.163,0.14 -0.241,0.212c2.76,-3.54 7.064,-5.824 11.884,-5.824c4.711,0 8.927,2.185 11.692,5.591c-0.048,-0.013 -0.101,0.007 -0.126,0.052l-0.005,0.006c-0.119,0.209 -0.316,0.349 -0.537,0.408c-0.221,0.058 -0.464,0.034 -0.676,-0.085l-0.001,0l-0.005,-0.003c-0.213,-0.125 -0.356,-0.322 -0.415,-0.543c-0.057,-0.208 -0.036,-0.438 0.073,-0.646c0.016,-0.012 0.026,-0.028 0.035,-0.047c0.022,-0.06 -0.009,-0.127 -0.068,-0.15c-0.173,-0.065 -0.347,-0.119 -0.524,-0.167c-0.176,-0.047 -0.354,-0.085 -0.535,-0.118c-0.008,-0.001 -0.016,-0.003 -0.024,-0.003c-0.063,0 -0.115,0.052 -0.115,0.115l0,0.008c0,0.247 -0.101,0.471 -0.262,0.634c-0.162,0.161 -0.384,0.261 -0.632,0.261c-0.243,0 -0.465,-0.099 -0.626,-0.258l-0.004,-0.006c-0.163,-0.162 -0.264,-0.384 -0.265,-0.628l0,-0.003l0,-0.004c0.001,-0.007 0,-0.015 -0.001,-0.021c-0.01,-0.063 -0.069,-0.108 -0.132,-0.098c-0.18,0.027 -0.358,0.065 -0.531,0.113c-0.183,0.049 -0.357,0.108 -0.526,0.174c-0.005,0.002 -0.009,0.004 -0.014,0.007c-0.056,0.032 -0.075,0.102 -0.044,0.157c0.123,0.217 0.147,0.46 0.09,0.679c-0.061,0.22 -0.203,0.417 -0.417,0.542c-0.215,0.122 -0.459,0.146 -0.681,0.087c-0.22,-0.06 -0.417,-0.201 -0.54,-0.413c-0.003,-0.006 -0.007,-0.011 -0.01,-0.016c-0.042,-0.049 -0.115,-0.056 -0.164,-0.016c-0.14,0.116 -0.277,0.239 -0.407,0.368c-0.123,0.127 -0.241,0.257 -0.354,0.391M14.875,9.407c0.244,0.531 0.164,1.14 -0.173,1.591l-0.018,-0.015c-0.074,-0.062 -0.138,-0.14 -0.19,-0.23l-0.001,-0.002c-0.123,-0.213 -0.147,-0.456 -0.088,-0.677c0.059,-0.219 0.203,-0.417 0.413,-0.54c0.005,-0.004 0.011,-0.007 0.016,-0.011c0.034,-0.028 0.05,-0.073 0.041,-0.116M14.55,11.174c-0.098,0.099 -0.213,0.187 -0.341,0.26c-0.008,0.004 -0.018,0.011 -0.026,0.015c-0.323,-0.737 -0.848,-1.365 -1.504,-1.816c-0.688,-0.472 -1.519,-0.747 -2.412,-0.747c-1.179,0 -2.25,0.479 -3.026,1.255c-0.776,0.774 -1.256,1.844 -1.256,3.025c0,1.178 0.481,2.247 1.257,3.022c0.772,0.771 1.837,1.25 3.007,1.255c0.067,0.156 0.11,0.324 0.125,0.5c-0.05,-0.008 -0.103,-0.01 -0.154,-0.01c-0.303,0 -0.58,0.123 -0.783,0.32c-0.174,0.17 -0.294,0.396 -0.331,0.647c-0.131,-0.025 -0.259,-0.056 -0.385,-0.09c-0.124,-0.034 -0.248,-0.072 -0.371,-0.114c0.093,-0.235 0.101,-0.491 0.034,-0.726c-0.077,-0.269 -0.253,-0.511 -0.518,-0.663l-0.002,-0.001c-0.262,-0.155 -0.563,-0.189 -0.837,-0.12c-0.235,0.061 -0.451,0.195 -0.607,0.395c-0.099,-0.086 -0.196,-0.174 -0.29,-0.267c-0.094,-0.092 -0.184,-0.187 -0.269,-0.285c0.199,-0.155 0.333,-0.371 0.395,-0.606c0.071,-0.274 0.04,-0.577 -0.111,-0.843l-0.002,-0.002c-0.156,-0.268 -0.403,-0.446 -0.677,-0.522c-0.235,-0.065 -0.49,-0.054 -0.726,0.042c-0.043,-0.125 -0.083,-0.251 -0.118,-0.378c-0.034,-0.125 -0.064,-0.253 -0.092,-0.381c0.253,-0.032 0.48,-0.15 0.651,-0.322c0.203,-0.204 0.328,-0.485 0.328,-0.794c0,-0.569 -0.427,-1.048 -0.988,-1.117c0.027,-0.13 0.058,-0.259 0.092,-0.385c0.035,-0.125 0.075,-0.252 0.117,-0.38c0.236,0.102 0.491,0.114 0.725,0.052c0.279,-0.075 0.531,-0.255 0.688,-0.522l0.002,-0.003c0.155,-0.269 0.186,-0.574 0.111,-0.851c-0.063,-0.237 -0.204,-0.453 -0.41,-0.607c0.083,-0.097 0.172,-0.193 0.264,-0.285c0.095,-0.095 0.194,-0.187 0.293,-0.273c0.155,0.204 0.371,0.343 0.606,0.405c0.276,0.074 0.581,0.045 0.848,-0.105l0.006,-0.003c0.27,-0.156 0.45,-0.405 0.524,-0.683c0.063,-0.236 0.05,-0.494 -0.051,-0.733c0.122,-0.043 0.248,-0.083 0.377,-0.118c0.128,-0.035 0.257,-0.064 0.387,-0.089c0.064,0.557 0.545,0.998 1.119,0.998c0.312,0 0.591,-0.126 0.795,-0.331c0.175,-0.175 0.292,-0.408 0.323,-0.667c0.133,0.027 0.264,0.057 0.392,0.091c0.126,0.033 0.251,0.071 0.375,0.113c-0.104,0.239 -0.119,0.497 -0.055,0.733c0.074,0.278 0.255,0.528 0.525,0.684l0,0.001c0.268,0.153 0.578,0.182 0.857,0.108c0.236,-0.063 0.451,-0.202 0.604,-0.405c0.098,0.085 0.192,0.174 0.285,0.268c0.092,0.093 0.182,0.19 0.271,0.29c-0.205,0.155 -0.345,0.371 -0.409,0.607c-0.074,0.277 -0.043,0.583 0.113,0.85l0,0.002c0.066,0.114 0.147,0.211 0.239,0.291l0.016,0.015ZM13.973,11.547c-0.716,0.276 -1.552,-0.008 -1.947,-0.691c-0.438,0.353 -0.846,0.76 -1.209,1.198c0.771,0.438 1.038,1.423 0.589,2.194c-0.438,0.759 -1.423,1.026 -2.183,0.577c-0.193,0.536 -0.342,1.082 -0.439,1.648c0.561,0 1.056,0.292 1.339,0.736c-1.059,-0.038 -2.018,-0.484 -2.72,-1.185c-0.733,-0.733 -1.188,-1.744 -1.188,-2.859c0,-1.117 0.454,-2.128 1.187,-2.861c0.734,-0.733 1.748,-1.188 2.864,-1.188c0.844,0 1.631,0.261 2.281,0.707c0.624,0.427 1.122,1.024 1.426,1.724M10.375,18.178c-0.051,0.83 -0.736,1.494 -1.58,1.505c0.097,0.556 0.246,1.103 0.439,1.626c0.759,-0.428 1.733,-0.16 2.172,0.599c0.438,0.75 0.192,1.723 -0.556,2.173c0.363,0.43 0.759,0.824 1.188,1.188c0.391,-0.628 1.147,-0.908 1.825,-0.707c-0.01,0.034 -0.021,0.07 -0.034,0.105c-0.016,0.042 -0.035,0.084 -0.058,0.124l-0.001,0.002c-0.125,0.213 -0.325,0.358 -0.547,0.417c-0.219,0.058 -0.458,0.034 -0.669,-0.087c-0.007,-0.005 -0.017,-0.01 -0.026,-0.013c-0.06,-0.021 -0.126,0.01 -0.147,0.07c-0.061,0.171 -0.116,0.346 -0.164,0.519c-0.048,0.175 -0.087,0.351 -0.119,0.53l-0.001,0.004c-0.001,0.008 -0.001,0.015 -0.001,0.021c0,0.063 0.051,0.116 0.116,0.116c0.247,0 0.47,0.099 0.631,0.26c0.162,0.162 0.262,0.387 0.262,0.634c0,0.246 -0.1,0.468 -0.261,0.631c-0.16,0.16 -0.381,0.262 -0.625,0.262c-0.006,0 -0.014,0 -0.02,0.002c-0.063,0.012 -0.104,0.072 -0.093,0.135c0.031,0.176 0.071,0.35 0.119,0.521c0.047,0.177 0.104,0.35 0.165,0.518c0.002,0.008 0.005,0.017 0.009,0.022c0.03,0.057 0.101,0.076 0.156,0.045c0.215,-0.116 0.458,-0.14 0.678,-0.078c0.217,0.059 0.412,0.199 0.537,0.409l0.001,0.003c0.12,0.212 0.146,0.453 0.089,0.673c-0.057,0.22 -0.195,0.417 -0.402,0.541c-0.005,0.004 -0.01,0.007 -0.014,0.011c-0.05,0.042 -0.056,0.113 -0.016,0.162c0.112,0.136 0.232,0.266 0.358,0.391c0.13,0.128 0.267,0.251 0.409,0.368c0.005,0.005 0.011,0.008 0.016,0.013c0.055,0.032 0.126,0.015 0.159,-0.04c0.123,-0.206 0.32,-0.343 0.539,-0.4c0.216,-0.055 0.454,-0.029 0.661,0.092l0.006,0.004c0.209,0.12 0.351,0.313 0.413,0.526c0.063,0.221 0.042,0.463 -0.072,0.672l0.001,0.001c-0.002,0.005 -0.004,0.01 -0.006,0.015c-0.023,0.06 0.008,0.125 0.067,0.148c0.083,0.03 0.165,0.061 0.248,0.088c-7.47,-0.883 -13.294,-7.263 -13.294,-14.959c0,-2.355 0.546,-4.585 1.518,-6.574c-0.02,0.063 -0.04,0.13 -0.057,0.196c-0.048,0.177 -0.089,0.354 -0.122,0.532c-0.012,0.063 0.031,0.123 0.093,0.134c0.006,0.001 0.014,0.002 0.021,0.002c0.498,0 0.896,0.406 0.896,0.895c0,0.246 -0.1,0.47 -0.261,0.631c-0.16,0.161 -0.381,0.262 -0.625,0.262c-0.064,0 -0.116,0.052 -0.116,0.115c0,0.011 0.001,0.021 0.004,0.03c0.033,0.176 0.072,0.35 0.119,0.521c0.049,0.178 0.104,0.351 0.166,0.517c0.022,0.061 0.088,0.091 0.148,0.069c0.009,-0.003 0.016,-0.007 0.023,-0.011c0.211,-0.115 0.45,-0.137 0.667,-0.077c0.219,0.06 0.415,0.203 0.54,0.416c0.12,0.212 0.145,0.453 0.089,0.672c-0.057,0.218 -0.195,0.416 -0.401,0.541c-0.055,0.033 -0.072,0.104 -0.039,0.158c0.003,0.008 0.009,0.015 0.015,0.021c0.113,0.137 0.234,0.267 0.36,0.392c0.128,0.125 0.263,0.246 0.401,0.361c0.05,0.04 0.122,0.034 0.164,-0.015c0.003,-0.004 0.007,-0.008 0.009,-0.014l0.001,0c0.124,-0.206 0.322,-0.345 0.54,-0.399c0.218,-0.056 0.456,-0.029 0.664,0.094l0.006,0.003c0.209,0.12 0.349,0.312 0.409,0.526c0.063,0.219 0.042,0.461 -0.072,0.672c-0.03,0.058 -0.008,0.128 0.047,0.158c0.006,0.003 0.014,0.006 0.02,0.008c0.165,0.06 0.332,0.114 0.504,0.161c0.173,0.047 0.349,0.086 0.53,0.115c0.063,0.012 0.121,-0.032 0.132,-0.096c0.001,-0.006 0.002,-0.012 0.002,-0.018c0.008,-0.241 0.111,-0.458 0.272,-0.616c0.162,-0.157 0.382,-0.255 0.623,-0.255c0.049,-0.003 0.102,0.002 0.152,0.011M14.643,25.077c0.411,0.494 0.5,1.206 0.176,1.796c0.525,0.193 1.06,0.332 1.627,0.438c0.011,-0.876 0.728,-1.571 1.605,-1.571c0.866,0 1.584,0.695 1.594,1.562c0.567,-0.097 1.103,-0.235 1.626,-0.429c-0.336,-0.611 -0.227,-1.355 0.226,-1.851c0.171,0.268 0.313,0.558 0.418,0.863c0.144,0.414 0.222,0.859 0.222,1.323c0,2.227 -1.815,4.041 -4.043,4.041c-1.116,0 -2.129,-0.454 -2.864,-1.187c-0.733,-0.732 -1.189,-1.742 -1.189,-2.854c0,-0.412 0.061,-0.807 0.172,-1.178c0.102,-0.34 0.247,-0.659 0.43,-0.953M21.666,24.86c0.065,-0.055 0.139,-0.104 0.215,-0.147c0.042,-0.024 0.084,-0.048 0.128,-0.066c0.024,0.09 0.062,0.179 0.111,0.263l0.005,0.007c0.151,0.263 0.397,0.443 0.673,0.517c0.236,0.064 0.494,0.051 0.733,-0.052c0.043,0.126 0.08,0.252 0.112,0.38c0.032,0.126 0.063,0.256 0.089,0.386c-0.254,0.033 -0.483,0.15 -0.656,0.323c-0.205,0.205 -0.332,0.485 -0.332,0.795c0,0.307 0.126,0.585 0.327,0.788c0.172,0.173 0.4,0.291 0.653,0.324c-0.025,0.131 -0.056,0.259 -0.09,0.388c-0.034,0.128 -0.073,0.254 -0.116,0.376c-0.236,-0.095 -0.492,-0.105 -0.727,-0.042c-0.274,0.078 -0.521,0.256 -0.672,0.521l0,0.001c-0.156,0.262 -0.189,0.563 -0.12,0.838c0.061,0.237 0.196,0.453 0.396,0.61c-0.084,0.097 -0.173,0.191 -0.261,0.28c-0.093,0.094 -0.189,0.185 -0.287,0.271c-0.158,-0.2 -0.372,-0.335 -0.608,-0.393c-0.273,-0.07 -0.574,-0.037 -0.839,0.118l-0.006,0.003c-0.262,0.152 -0.438,0.396 -0.516,0.667c-0.064,0.232 -0.054,0.484 0.041,0.72c-0.123,0.043 -0.252,0.081 -0.379,0.116c-0.127,0.032 -0.254,0.063 -0.382,0.086c-0.033,-0.249 -0.152,-0.475 -0.325,-0.645c-0.203,-0.199 -0.482,-0.322 -0.79,-0.322c-0.304,0 -0.581,0.122 -0.784,0.322c-0.174,0.17 -0.292,0.394 -0.329,0.645c-0.13,-0.023 -0.258,-0.054 -0.385,-0.088c-0.126,-0.035 -0.25,-0.072 -0.37,-0.114c0.093,-0.235 0.101,-0.491 0.035,-0.726c-0.078,-0.271 -0.255,-0.515 -0.522,-0.665l-0.003,-0.001c-0.263,-0.154 -0.563,-0.186 -0.834,-0.116c-0.234,0.059 -0.45,0.193 -0.605,0.394c-0.103,-0.088 -0.203,-0.18 -0.299,-0.275c-0.09,-0.09 -0.177,-0.181 -0.261,-0.277c0.199,-0.156 0.333,-0.371 0.395,-0.604c0.071,-0.276 0.039,-0.579 -0.112,-0.844l-0.004,-0.008c-0.156,-0.264 -0.402,-0.439 -0.674,-0.516c-0.235,-0.064 -0.491,-0.053 -0.728,0.042c-0.043,-0.127 -0.083,-0.256 -0.119,-0.387c-0.034,-0.123 -0.064,-0.247 -0.089,-0.374c0.252,-0.03 0.479,-0.146 0.651,-0.32c0.203,-0.203 0.328,-0.486 0.328,-0.794c0,-0.31 -0.125,-0.591 -0.33,-0.797c-0.172,-0.172 -0.4,-0.289 -0.656,-0.321c0.027,-0.129 0.057,-0.259 0.092,-0.386c0.035,-0.129 0.074,-0.255 0.115,-0.38c0.236,0.102 0.491,0.115 0.726,0.053c0.279,-0.074 0.531,-0.256 0.688,-0.525l0.003,-0.003c0.03,-0.053 0.054,-0.106 0.073,-0.156l0.005,-0.015c0.064,0.035 0.129,0.07 0.195,0.104l0,0.001c0.066,0.035 0.136,0.069 0.209,0.105c-0.198,0.314 -0.354,0.657 -0.463,1.021c-0.119,0.393 -0.183,0.811 -0.183,1.244l0.001,0c0,1.177 0.481,2.245 1.257,3.019c0.776,0.774 1.847,1.255 3.026,1.255c2.354,0 4.276,-1.919 4.276,-4.273c0,-0.488 -0.083,-0.959 -0.236,-1.397c-0.117,-0.343 -0.274,-0.66 -0.466,-0.954M22.226,24.562c0.679,-0.203 1.436,0.077 1.827,0.706c0.418,-0.363 0.813,-0.758 1.177,-1.188c-0.737,-0.45 -0.995,-1.423 -0.557,-2.173c0.438,-0.759 1.413,-1.026 2.174,-0.599c0.19,-0.523 0.342,-1.07 0.438,-1.626c-0.843,-0.011 -1.529,-0.673 -1.581,-1.502l0.005,-0.001c0.054,-0.009 0.108,-0.016 0.161,-0.016c0.244,0 0.467,0.099 0.628,0.255c0.162,0.159 0.262,0.375 0.267,0.616c0,0.007 0,0.012 0.001,0.017c0.009,0.063 0.068,0.106 0.131,0.096c0.183,-0.029 0.359,-0.067 0.535,-0.113c0.172,-0.048 0.344,-0.103 0.51,-0.163c0.006,-0.002 0.014,-0.005 0.02,-0.008c0.056,-0.031 0.076,-0.102 0.046,-0.158c-0.116,-0.213 -0.139,-0.451 -0.079,-0.667c0.061,-0.217 0.203,-0.41 0.41,-0.533c0.213,-0.123 0.451,-0.149 0.669,-0.094c0.218,0.054 0.416,0.19 0.543,0.396c0.004,0.006 0.009,0.013 0.015,0.019c0.04,0.048 0.113,0.054 0.162,0.013c0.135,-0.115 0.266,-0.235 0.393,-0.361c0.122,-0.125 0.241,-0.255 0.354,-0.391c0.006,-0.006 0.011,-0.014 0.016,-0.021c0.034,-0.054 0.016,-0.125 -0.039,-0.158c-0.205,-0.125 -0.345,-0.324 -0.4,-0.545c-0.056,-0.22 -0.026,-0.46 0.098,-0.67l-0.001,0l0.001,-0.001c0.121,-0.207 0.314,-0.35 0.533,-0.409c0.216,-0.059 0.454,-0.04 0.666,0.075c0.007,0.003 0.013,0.006 0.019,0.008c0.06,0.025 0.127,-0.005 0.151,-0.064c0.064,-0.167 0.121,-0.34 0.168,-0.516c0.047,-0.172 0.084,-0.351 0.117,-0.53c0.002,-0.007 0.002,-0.015 0.002,-0.021c0,-0.064 -0.05,-0.116 -0.113,-0.117c-0.246,-0.002 -0.468,-0.104 -0.63,-0.266c-0.159,-0.161 -0.257,-0.382 -0.257,-0.626c0,-0.246 0.101,-0.469 0.263,-0.632c0.162,-0.162 0.387,-0.264 0.631,-0.264c0.008,0 0.015,0 0.021,-0.002c0.063,-0.011 0.105,-0.072 0.095,-0.135c-0.017,-0.084 -0.034,-0.171 -0.054,-0.256c0.835,1.867 1.299,3.932 1.299,6.103c0,7.64 -5.742,13.984 -13.126,14.939c0.06,-0.021 0.122,-0.042 0.182,-0.065c0.008,-0.002 0.016,-0.005 0.024,-0.009c0.056,-0.031 0.076,-0.103 0.045,-0.158c-0.118,-0.212 -0.141,-0.451 -0.078,-0.668c0.058,-0.215 0.198,-0.406 0.405,-0.527l0.007,-0.003c0.212,-0.124 0.45,-0.15 0.668,-0.096c0.218,0.057 0.414,0.192 0.542,0.396c0.004,0.006 0.007,0.013 0.012,0.019c0.041,0.048 0.114,0.055 0.164,0.014c0.136,-0.116 0.269,-0.238 0.396,-0.367c0.125,-0.124 0.243,-0.255 0.354,-0.389c0.006,-0.006 0.011,-0.012 0.014,-0.017c0.033,-0.057 0.015,-0.127 -0.04,-0.16c-0.206,-0.124 -0.345,-0.323 -0.399,-0.544c-0.056,-0.22 -0.029,-0.458 0.09,-0.664l0.004,-0.006c0.12,-0.209 0.316,-0.351 0.533,-0.41c0.22,-0.062 0.461,-0.04 0.674,0.076c0.005,0.002 0.01,0.005 0.015,0.007c0.06,0.023 0.127,-0.007 0.148,-0.066c0.067,-0.17 0.123,-0.342 0.168,-0.516c0.046,-0.17 0.084,-0.347 0.118,-0.526c0.002,-0.009 0.003,-0.017 0.003,-0.024c0,-0.063 -0.051,-0.116 -0.115,-0.116c-0.245,-0.004 -0.468,-0.105 -0.629,-0.268c-0.16,-0.16 -0.26,-0.381 -0.26,-0.625c0,-0.245 0.103,-0.469 0.265,-0.632c0.162,-0.162 0.387,-0.262 0.632,-0.262c0.006,0 0.012,-0.002 0.02,-0.003c0.063,-0.012 0.104,-0.072 0.093,-0.135c-0.033,-0.18 -0.071,-0.357 -0.116,-0.532c-0.047,-0.177 -0.1,-0.353 -0.159,-0.521c-0.002,-0.006 -0.006,-0.013 -0.009,-0.018c-0.031,-0.057 -0.104,-0.076 -0.158,-0.045l-0.006,0.004c-0.216,0.122 -0.458,0.146 -0.678,0.087c-0.219,-0.059 -0.412,-0.201 -0.533,-0.409c-0.002,-0.002 -0.003,-0.005 -0.005,-0.008c-0.049,-0.074 -0.081,-0.153 -0.1,-0.231M18.114,11.369c3.649,0 6.612,2.963 6.612,6.612c0,3.639 -2.963,6.613 -6.612,6.613c-3.638,0 -6.612,-2.975 -6.612,-6.613c0,-3.648 2.974,-6.612 6.612,-6.612M4.651,11.064c0.024,-0.003 0.049,0.002 0.072,0.015c0.211,0.125 0.453,0.149 0.673,0.09c0.222,-0.059 0.422,-0.203 0.547,-0.416c0.123,-0.214 0.147,-0.456 0.088,-0.678c-0.059,-0.219 -0.203,-0.417 -0.415,-0.54l-0.001,-0.001l0.001,0c-0.007,-0.003 -0.011,-0.007 -0.017,-0.011c-0.003,-0.002 -0.007,-0.006 -0.01,-0.008c-0.342,0.495 -0.657,1.012 -0.938,1.549M30.429,9.559c-0.189,0.127 -0.319,0.313 -0.373,0.52c-0.061,0.221 -0.033,0.462 0.091,0.675l0.001,0.001l0.003,0.006c0.118,0.209 0.314,0.351 0.533,0.409c0.215,0.058 0.452,0.036 0.665,-0.079c-0.277,-0.53 -0.585,-1.041 -0.92,-1.532M18.939,33.071c-0.005,-0.238 -0.106,-0.456 -0.266,-0.612c-0.162,-0.157 -0.384,-0.256 -0.628,-0.256c-0.241,0 -0.462,0.099 -0.623,0.256c-0.162,0.157 -0.265,0.377 -0.272,0.617c0.28,0.017 0.563,0.025 0.846,0.025c0.317,0 0.63,-0.012 0.943,-0.03M12.553,25.123c0.043,0.029 0.063,0.084 0.044,0.136l-0.044,-0.136Z"
    />
    <image src="/themes/_system/images/ie8/mechanika.png"/>
</svg>